# xmcd CD database file
#
# Track frame offsets:
#	150
#	46060
#	62445
#	93507
#	115715
#	131992
#	141830
#	160895
#	186559
#	215805
#	240235
#
# Disc length: 3567 seconds
#
# Revision: 6
# Processed by: cddbd v1.5.1PL0 Copyright (c) Steve Scherf et al.
# Submitted via: CDex 1.51
#
DISCID=9d0ded0b
DTITLE=Dio - Dio's Inferno_ The Last In Live [CD2]
DYEAR=1998
DGENRE=Heavy Metal
TTITLE0=Mistreated〜Catch The Rainbow
TTITLE1=Guitar Solo
TTITLE2=The Last In Line
TTITLE3=Rainbow In The Dark
TTITLE4=The Mob Rules
TTITLE5=Man On The Silver Mountain
TTITLE6=Long Live Rock 'N' Roll
TTITLE7=We Rock
TTITLE8=After All (The Dead)
TTITLE9=I
TTITLE10=Interview With Ronnie James Dio
EXTD=YEAR: 1998
EXTT0=
EXTT1=
EXTT2=
EXTT3=
EXTT4=
EXTT5=
EXTT6=
EXTT7=
EXTT8=
EXTT9=
EXTT10=
PLAYORDER=
